<svg id="logo_tel" data-name="logo tel" xmlns="http://www.w3.org/2000/svg" viewBox="0 0 247.17 247.17"><defs><style>.cls-1{fill:#429fac;}.cls-2{fill:#dfefea;}</style></defs><circle class="cls-1" cx="123.58" cy="123.58" r="123.58"/><path class="cls-2" d="M154.26,270.76a26.58,26.58,0,0,1,0-21l19.34-18.33a11.4,11.4,0,0,1,7.16-3.34,11.75,11.75,0,0,1,8.84,3.34l21.66,21.66a11.63,11.63,0,0,1,1.67,14l-18.33,20a64.9,64.9,0,0,0,5,15.67c12.08,25.87,38,36,46.66,39l18-17.33a11.34,11.34,0,0,1,18.34-.34l21.66,21a11.29,11.29,0,0,1,3.17,8.5,11,11,0,0,1-3.17,6.84l-15.33,16a29.92,29.92,0,0,1-10.17,5.83c-35.42,11.62-85.83-52.74-95-64.43A269.17,269.17,0,0,1,154.26,270.76Z" transform="translate(-105.82 -182.65)"/></svg>