<?xml version="1.0" standalone="no"?>
<!DOCTYPE svg PUBLIC "-//W3C//DTD SVG 20010904//EN"
 "http://www.w3.org/TR/2001/REC-SVG-20010904/DTD/svg10.dtd">
<svg version="1.0" xmlns="http://www.w3.org/2000/svg"
 width="1080.000000pt" height="1080.000000pt" viewBox="0 0 1080.000000 1080.000000"
 preserveAspectRatio="xMidYMid meet">

<g transform="translate(0.000000,1080.000000) scale(0.100000,-0.100000)"
fill="#000000" stroke="none">
<path d="M5259 8960 c-29 -32 -59 -40 -59 -14 0 8 -4 13 -10 9 -5 -3 -6 -13
-3 -22 5 -12 2 -15 -10 -10 -11 4 -17 1 -17 -9 0 -8 -13 -17 -30 -20 -30 -7
-38 -18 -20 -29 14 -9 0 -35 -20 -35 -10 0 -25 -10 -34 -22 -9 -13 -14 -16
-10 -8 4 8 -5 3 -21 -12 -15 -16 -32 -28 -36 -28 -16 0 -9 18 14 37 13 10 26
26 30 36 4 9 17 22 29 27 14 5 17 9 8 9 -29 2 -137 -96 -169 -152 -12 -21 -24
-31 -36 -29 -12 2 -16 -1 -12 -11 3 -9 -1 -18 -9 -21 -8 -3 -14 -17 -14 -31 0
-14 -4 -25 -10 -25 -5 0 -10 -7 -10 -15 0 -8 -4 -15 -10 -15 -12 0 -13 30 -1
49 6 9 4 23 -6 38 -11 16 -14 37 -9 70 l5 48 -17 -57 c-9 -31 -23 -63 -29 -70
-7 -6 -13 -23 -14 -38 l0 -25 -11 25 c-6 14 -10 39 -9 55 2 36 -16 94 -20 60
-1 -11 -1 -24 0 -29 1 -5 -3 -12 -9 -16 -6 -4 -13 -35 -15 -70 -2 -34 -6 -64
-8 -67 -7 -7 -19 86 -12 97 3 6 -1 13 -10 16 -11 4 -26 -3 -43 -19 -22 -22
-26 -35 -25 -79 1 -29 -1 -45 -4 -35 -2 10 -11 16 -18 14 -7 -3 -17 -1 -23 5
-8 8 -16 8 -27 -2 -8 -7 -16 -10 -16 -6 -1 3 -3 11 -4 16 -1 6 -3 17 -4 25 -2
26 -28 16 -42 -17 -7 -17 -12 -48 -12 -67 1 -20 -1 -28 -4 -17 -4 14 -11 17
-34 12 -22 -4 -31 -1 -36 10 -11 29 -51 66 -55 52 -3 -7 2 -18 9 -23 8 -6 16
-32 17 -58 3 -44 2 -47 -18 -41 -11 4 -22 11 -24 15 -6 14 -28 10 -43 -7 -10
-13 -10 -17 0 -23 16 -10 21 -69 7 -74 -16 -6 -56 11 -56 23 0 5 -18 10 -41
10 -24 0 -38 4 -34 10 3 6 -1 10 -9 10 -19 0 -21 -23 -5 -52 9 -17 8 -23 -7
-32 -11 -6 -28 -11 -39 -12 -48 -3 -55 -5 -55 -15 0 -6 6 -9 14 -6 20 8 43
-20 29 -34 -8 -8 -20 -6 -42 5 -17 9 -31 13 -31 8 0 -5 15 -15 33 -23 42 -18
51 -69 15 -87 -13 -6 -17 -11 -10 -11 16 -1 16 -21 -1 -21 -7 0 -18 -14 -24
-31 -8 -20 -18 -30 -30 -29 -63 7 -83 -8 -35 -27 22 -9 23 -11 7 -12 -18 -1
-20 -7 -19 -53 1 -29 -3 -59 -9 -67 -9 -11 -9 -15 1 -18 17 -6 15 -45 -3 -69
-8 -10 -15 -40 -15 -66 0 -26 -6 -68 -12 -94 -11 -41 -11 -47 6 -59 17 -13 18
-24 11 -135 -6 -99 -4 -120 7 -120 15 0 17 -47 3 -113 -5 -25 -3 -42 5 -52 7
-8 10 -22 6 -30 -3 -8 -2 -15 3 -15 4 0 8 -15 9 -32 0 -18 3 -87 6 -153 6
-150 14 -264 20 -273 3 -5 7 -26 10 -47 8 -58 22 -116 35 -148 6 -16 11 -40
11 -54 0 -14 7 -31 16 -37 8 -7 18 -32 21 -56 3 -25 9 -49 13 -55 4 -5 13 -35
20 -65 14 -65 50 -150 62 -150 5 0 8 -10 7 -22 -1 -13 3 -36 10 -51 6 -16 8
-33 5 -38 -3 -6 1 -18 10 -28 9 -10 22 -37 30 -62 31 -94 43 -120 79 -160 20
-22 37 -50 37 -61 0 -20 1 -20 18 -5 24 22 32 21 32 -1 0 -22 37 -55 52 -46 6
4 8 3 5 -3 -4 -6 9 -26 28 -46 22 -22 33 -42 29 -51 -4 -9 -1 -16 6 -16 9 0 9
-4 -1 -16 -16 -19 -18 -46 -5 -56 5 -3 9 -30 7 -58 -2 -45 0 -52 14 -46 9 3
26 1 37 -5 14 -7 18 -7 14 0 -10 16 28 33 42 19 7 -7 12 -8 12 -4 0 5 7 3 16
-5 8 -7 46 -14 85 -15 67 -2 69 -2 69 22 0 13 6 24 13 24 6 0 17 11 24 25 9
20 8 27 -4 33 -12 7 -12 10 1 21 9 8 16 19 16 26 0 7 6 18 13 24 17 13 15 44
-2 65 -12 14 -11 19 3 34 9 10 16 33 16 50 0 17 5 34 10 37 13 8 5 174 -9 188
-15 15 -14 42 3 56 10 8 13 32 12 78 -2 54 -6 69 -24 83 -34 28 -32 60 3 80
17 10 33 16 36 14 3 -2 14 3 24 10 22 16 12 36 -19 36 -22 0 -62 51 -104 131
-7 15 -21 35 -31 46 -34 36 -64 142 -65 228 -1 66 3 88 22 125 31 59 59 88
101 106 37 15 85 19 77 5 -3 -4 6 -6 19 -3 37 7 31 -21 -7 -36 -82 -33 -98
-45 -122 -96 -22 -47 -23 -58 -16 -136 11 -127 57 -209 120 -216 28 -3 31 -1
24 14 -5 9 -9 40 -10 67 -1 28 -2 72 -3 98 0 29 -5 46 -11 42 -5 -3 -19 3 -31
14 l-21 19 23 23 22 22 23 -26 c29 -34 38 -34 30 -2 -4 14 -2 25 4 25 5 0 10
-4 10 -10 0 -5 14 -26 32 -46 25 -29 37 -35 60 -32 39 6 45 -9 13 -34 -15 -11
-31 -32 -38 -47 -13 -31 -9 -108 6 -136 6 -11 12 -38 15 -60 5 -51 24 -72 75
-80 33 -6 53 -19 95 -62 35 -36 59 -53 68 -49 9 3 18 6 20 6 10 0 3 53 -11 80
-8 15 -19 68 -25 117 -5 48 -12 99 -15 112 -2 13 0 32 6 42 11 21 54 26 65 8
3 -6 14 -9 24 -6 11 3 21 -2 24 -10 3 -8 10 -12 15 -9 5 4 11 0 14 -6 3 -10 7
-10 18 -1 12 10 17 8 27 -8 7 -10 18 -19 26 -19 18 0 60 -50 82 -95 9 -19 23
-35 30 -35 8 0 18 -10 23 -22 10 -25 71 -75 71 -58 0 5 7 10 15 10 8 0 15 -4
15 -9 0 -17 64 8 87 34 12 14 26 25 30 25 4 0 21 20 36 44 15 24 39 52 54 61
40 26 71 67 79 100 3 17 12 40 20 53 8 12 12 22 8 22 -4 0 -1 7 6 15 7 8 9 26
5 44 -3 16 -2 38 4 48 16 28 30 113 20 119 -22 13 -6 33 31 39 22 4 40 11 40
16 0 6 5 7 12 3 8 -5 9 -2 5 11 -7 17 17 46 46 59 8 3 8 8 -2 14 -12 8 -7 14
25 29 21 10 48 28 59 40 11 13 28 23 38 23 20 0 23 16 5 22 -8 3 3 18 25 37
20 18 37 40 37 50 0 9 7 28 14 43 21 40 22 58 3 102 -18 40 -15 56 9 56 8 0
14 5 14 10 0 6 -8 10 -17 8 -13 -2 -19 7 -24 35 -7 45 -9 44 83 50 47 3 73 1
87 -9 14 -10 40 -13 96 -9 42 2 81 7 86 11 6 3 18 -1 28 -10 24 -22 88 -18
120 6 30 23 38 23 44 1 3 -11 5 -7 6 10 0 15 6 27 11 27 6 0 10 8 10 17 0 13
3 14 11 6 6 -6 18 -9 25 -6 10 4 12 0 8 -11 -3 -9 -15 -16 -25 -16 -10 0 -19
-5 -19 -11 0 -6 9 -9 20 -6 24 6 25 -1 4 -31 -8 -12 -11 -22 -5 -22 19 0 62
45 66 70 6 42 41 170 49 177 3 4 12 1 18 -5 22 -22 41 -14 34 12 -3 14 -2 28
4 31 5 3 10 -1 10 -9 0 -8 6 -21 13 -28 7 -7 16 -21 20 -30 11 -31 23 -20 43
42 19 59 40 82 55 58 4 -7 11 -9 15 -6 9 9 74 -24 97 -50 10 -11 19 -29 20
-41 2 -33 17 -25 17 9 0 33 -35 74 -72 86 -13 4 -18 12 -15 25 3 12 0 19 -9
19 -8 0 -14 4 -14 9 0 5 -13 11 -30 15 -18 3 -30 12 -30 21 0 21 11 19 50 -10
37 -27 50 -25 50 11 l0 24 33 -18 c52 -28 125 -81 130 -94 3 -7 6 -4 6 7 1 26
-17 45 -41 45 -10 0 -18 6 -18 14 0 20 17 29 23 14 3 -8 6 -5 6 6 1 15 7 17
31 14 17 -3 30 -3 30 -2 0 8 -61 34 -80 34 -11 0 -20 7 -20 15 0 15 5 15 119
0 19 -2 37 -9 40 -14 8 -13 58 -24 76 -17 33 12 -66 86 -116 86 -15 0 -19 5
-15 18 6 19 -1 22 -51 22 -14 0 -23 6 -23 15 0 19 90 22 90 3 0 -7 5 -5 11 4
9 16 13 16 32 4 36 -23 67 -29 67 -14 0 14 -53 38 -83 38 -9 0 -17 7 -17 15 0
9 -7 18 -15 21 -22 9 -8 24 23 24 15 0 35 -9 45 -20 22 -26 37 -26 30 0 -3 10
-14 22 -25 26 -18 5 -18 7 -4 23 22 24 21 27 -14 41 -24 10 -29 17 -26 36 6
30 -10 41 -19 14 -7 -23 -25 -27 -25 -5 0 8 5 15 12 15 9 0 9 3 -1 13 -10 10
-15 8 -26 -8 -27 -38 -34 -43 -54 -38 -20 5 -20 6 2 34 12 15 28 26 35 24 7
-3 10 0 7 5 -3 6 -13 10 -21 10 -8 0 -14 7 -14 15 0 9 9 15 25 15 42 0 100 35
63 38 -7 0 -20 3 -28 5 -50 16 -60 20 -60 29 0 5 -4 7 -9 4 -5 -3 -11 1 -15 9
-3 10 -19 15 -42 15 -31 0 -36 3 -31 20 6 22 -18 29 -26 8 -3 -8 -6 -6 -6 5
-1 10 -9 17 -20 17 -11 0 -26 6 -33 13 -7 8 -19 12 -26 9 -20 -6 -27 29 -9 43
21 15 4 35 -30 35 -13 0 -23 5 -23 10 0 6 -7 10 -16 10 -11 0 -14 6 -9 21 6
16 3 20 -17 18 -67 -6 -95 13 -37 26 18 4 27 10 22 14 -19 12 -22 50 -4 54 10
3 7 5 -8 6 -18 1 -22 -3 -18 -18 6 -26 -34 -66 -51 -49 -8 8 -22 8 -56 -2 -36
-10 -49 -10 -60 0 -9 6 -20 9 -26 5 -14 -9 -70 4 -70 16 0 5 15 9 33 9 l32 1
-30 13 c-16 7 -34 11 -39 8 -4 -2 -11 0 -15 7 -4 6 -37 12 -74 13 -36 1 -64 5
-61 10 3 4 -4 8 -15 8 -10 0 -21 -6 -24 -12 -2 -7 -8 -9 -13 -5 -11 11 15 26
46 28 17 1 20 3 7 6 -9 2 -15 8 -12 13 9 14 -159 8 -173 -7 -22 -21 -44 -16
-40 10 2 14 -2 22 -12 22 -8 0 -21 4 -27 8 -9 6 -13 0 -13 -18 0 -20 4 -26 17
-23 10 2 32 -12 50 -30 19 -18 41 -32 51 -30 9 2 24 -4 33 -12 9 -8 24 -20 35
-27 17 -10 15 -12 -19 -12 -27 -1 -44 6 -60 22 -30 31 -145 86 -188 89 -30 3
-34 0 -33 -20 1 -21 0 -21 -18 -5 -21 19 -23 33 -4 33 8 0 14 10 14 25 0 13
-4 22 -8 20 -4 -3 -11 2 -14 11 -3 8 -10 13 -15 9 -5 -3 -12 -1 -15 4 -4 6
-18 6 -37 1 -32 -10 -55 -1 -92 34 -14 13 -22 15 -30 7 -6 -6 -18 -11 -26 -11
-14 0 -10 4 51 54 l23 18 -22 -6 c-13 -3 -31 -8 -41 -11 -9 -3 -31 -1 -47 4
-21 6 -34 4 -42 -4 -7 -7 -10 -15 -7 -17 2 -3 -3 -5 -11 -5 -12 0 -12 3 -3 15
7 8 13 21 14 30 2 8 12 29 24 46 19 27 18 26 -15 -6 -20 -21 -43 -38 -51 -38
-8 0 -14 -4 -14 -10 0 -5 -11 -10 -25 -10 -18 0 -25 5 -25 20 0 15 -7 20 -29
20 -34 0 -91 19 -91 30 0 5 -8 8 -19 7 -12 -1 -17 -7 -13 -19 2 -10 -1 -18 -7
-18 -6 0 -11 8 -11 18 0 13 -2 14 -9 3 -7 -11 -10 -10 -18 3 -10 18 -53 31
-53 15 0 -5 5 -9 12 -9 6 0 9 -3 5 -6 -3 -3 -28 1 -54 10 -30 10 -49 13 -51 6
-2 -5 -10 -10 -18 -10 -8 0 -14 -7 -14 -15 0 -22 -21 -18 -27 5 -6 24 -7 24
-40 3 -24 -16 -26 -16 -21 -2 4 9 2 21 -3 26 -6 6 -4 14 6 23 49 41 -34 37
-88 -4 -35 -27 -57 -33 -57 -16 0 6 3 10 8 10 4 0 8 12 9 26 0 15 7 30 15 35
10 7 10 9 -2 8 -8 0 -27 -13 -41 -29z m378 -122 c-3 -8 -6 -5 -6 6 -1 11 2 17
5 13 3 -3 4 -12 1 -19z m623 -164 c0 -8 -4 -12 -10 -9 -5 3 -10 10 -10 16 0 5
5 9 10 9 6 0 10 -7 10 -16z m-1807 -149 c4 -8 2 -17 -3 -20 -6 -4 -10 -1 -10
5 0 6 -4 8 -10 5 -6 -3 -7 1 -4 9 8 20 20 20 27 1z m2081 0 c3 -9 0 -15 -9
-15 -9 0 -12 6 -9 15 4 8 7 15 9 15 2 0 5 -7 9 -15z m189 -21 c15 -3 27 -12
27 -20 0 -17 0 -17 -43 1 -39 16 -63 41 -31 32 11 -4 31 -9 47 -13z m-125 -19
c11 -14 25 -25 30 -25 6 0 24 -17 39 -37 15 -21 32 -41 38 -45 5 -4 6 -8 1 -8
-15 0 -110 77 -134 109 -28 39 -4 44 26 6z m-174 -21 c5 -14 4 -15 -9 -4 -17
14 -19 20 -6 20 5 0 12 -7 15 -16z m356 -4 c0 -5 -2 -10 -4 -10 -3 0 -8 5 -11
10 -3 6 -1 10 4 10 6 0 11 -4 11 -10z m-2530 -30 c0 -5 -5 -10 -11 -10 -5 0
-7 5 -4 10 3 6 8 10 11 10 2 0 4 -4 4 -10z m2620 -14 c0 -3 -4 -8 -10 -11 -5
-3 -10 -1 -10 4 0 6 5 11 10 11 6 0 10 -2 10 -4z m60 -41 c13 -14 18 -25 12
-25 -14 0 -52 31 -52 42 0 15 17 8 40 -17z m-2755 -39 c19 -10 18 -11 -9 -14
-19 -2 -34 3 -48 18 l-19 21 28 -7 c15 -4 37 -12 48 -18z m158 -32 c21 -8 22
-23 3 -30 -18 -7 -66 24 -66 42 0 10 5 11 23 4 12 -6 30 -13 40 -16z m3137
-73 c19 -6 11 -8 -30 -9 -37 -1 -50 2 -40 8 17 11 35 11 70 1z m60 -396 c10
-12 9 -15 -8 -15 -11 0 -22 7 -26 15 -3 9 0 15 8 15 7 0 19 -7 26 -15z m82
-27 c-12 -12 -35 -1 -27 12 3 5 13 6 21 3 10 -4 12 -9 6 -15z m-2430 -1326 c8
-9 7 -11 -6 -6 -12 5 -16 18 -14 53 l1 46 4 -40 c3 -22 9 -46 15 -53z m-12
-76 c0 -16 -18 -31 -27 -22 -8 8 5 36 17 36 5 0 10 -6 10 -14z m-645 -1086 c3
-5 1 -10 -4 -10 -6 0 -11 5 -11 10 0 6 2 10 4 10 3 0 8 -4 11 -10z m147 -5 c0
-5 -5 -11 -11 -13 -6 -2 -11 4 -11 13 0 9 5 15 11 13 6 -2 11 -8 11 -13z"/>
<path d="M4434 8651 c3 -18 6 -37 6 -42 0 -5 4 -9 9 -9 12 0 7 41 -8 66 -11
17 -12 15 -7 -15z"/>
<path d="M6380 8672 c0 -5 7 -9 15 -9 8 0 15 4 15 9 0 4 -7 8 -15 8 -8 0 -15
-4 -15 -8z"/>
<path d="M6910 8600 c0 -5 5 -10 11 -10 5 0 7 5 4 10 -3 6 -8 10 -11 10 -2 0
-4 -4 -4 -10z"/>
<path d="M4350 8500 c0 -5 5 -10 11 -10 5 0 7 5 4 10 -3 6 -8 10 -11 10 -2 0
-4 -4 -4 -10z"/>
<path d="M4105 8461 c22 -11 51 -20 65 -20 24 0 23 0 -6 13 -17 8 -46 17 -65
20 l-34 7 40 -20z"/>
<path d="M3988 8413 c6 -2 18 -2 25 0 6 3 1 5 -13 5 -14 0 -19 -2 -12 -5z"/>
<path d="M3961 8094 c0 -11 3 -14 6 -6 3 7 2 16 -1 19 -3 4 -6 -2 -5 -13z"/>
<path d="M7370 7510 c0 -5 5 -10 11 -10 5 0 7 5 4 10 -3 6 -8 10 -11 10 -2 0
-4 -4 -4 -10z"/>
<path d="M7360 7480 c0 -5 5 -10 11 -10 5 0 7 5 4 10 -3 6 -8 10 -11 10 -2 0
-4 -4 -4 -10z"/>
<path d="M7030 6830 c0 -5 -8 -10 -18 -10 -10 0 -22 -3 -26 -7 -4 -5 -17 -9
-29 -10 -12 -1 -47 -4 -77 -8 -30 -4 -73 -8 -95 -9 -39 -1 -99 -31 -139 -68
-18 -16 -18 -17 15 -31 38 -15 33 -19 -44 -32 -21 -3 -35 -10 -31 -16 3 -5 15
-7 27 -3 12 3 19 3 15 -1 -4 -5 -3 -14 3 -21 9 -10 7 -15 -5 -20 -9 -3 -16
-12 -16 -20 0 -8 -4 -14 -10 -14 -5 0 -10 -4 -10 -10 0 -5 7 -10 15 -10 8 0
15 -4 15 -9 0 -5 -7 -11 -15 -15 -8 -3 -15 -13 -15 -22 0 -14 6 -15 43 -8 23
4 60 7 82 5 79 -4 124 8 140 37 13 25 20 19 16 -15 -2 -15 68 -63 92 -63 14 0
17 -5 12 -20 -8 -26 6 -26 28 0 10 12 22 18 27 15 13 -8 90 25 90 40 0 7 6 15
14 18 9 4 15 28 18 69 5 60 7 65 56 115 29 29 53 62 54 73 0 11 1 25 2 31 2
27 -67 49 -151 49 -49 0 -83 -4 -83 -10z m18 -131 c5 -28 -88 -60 -117 -40
-11 7 -10 12 5 29 11 10 26 21 34 24 27 9 75 1 78 -13z m-313 -49 c-28 -12
-45 -12 -45 0 0 6 15 10 33 9 27 0 29 -2 12 -9z m255 -150 c0 -5 -4 -10 -10
-10 -5 0 -10 5 -10 10 0 6 5 10 10 10 6 0 10 -4 10 -10z"/>
<path d="M7348 6779 c-10 -6 -18 -15 -18 -20 0 -6 -9 -22 -20 -36 -11 -14 -20
-30 -20 -35 0 -14 59 30 77 58 19 29 7 48 -19 33z"/>
<path d="M6360 6675 c0 -10 7 -15 18 -13 21 4 19 22 -2 26 -10 2 -16 -3 -16
-13z"/>
<path d="M5651 6094 c0 -11 3 -14 6 -6 3 7 2 16 -1 19 -3 4 -6 -2 -5 -13z"/>
<path d="M7182 6064 c-15 -16 -12 -52 3 -44 5 3 8 13 7 23 -2 10 3 17 12 17 9
0 16 5 16 10 0 15 -23 11 -38 -6z"/>
<path d="M4945 6060 c-3 -5 1 -13 10 -16 22 -9 29 1 11 15 -10 8 -16 9 -21 1z"/>
<path d="M7240 6040 c0 -5 5 -10 10 -10 6 0 10 5 10 10 0 6 -4 10 -10 10 -5 0
-10 -4 -10 -10z"/>
<path d="M7108 6022 c-23 -5 -23 -25 0 -45 26 -24 42 -21 42 7 0 28 -18 44
-42 38z"/>
<path d="M7046 5945 c-17 -17 -36 -77 -36 -113 0 -14 17 -39 46 -67 40 -37 53
-44 97 -47 37 -2 64 3 97 19 25 11 72 26 105 31 76 13 162 46 186 71 21 22 26
46 7 35 -8 -5 -9 -2 -4 11 5 15 4 16 -9 5 -10 -8 -19 -9 -27 -2 -7 5 -28 13
-45 17 -26 5 -33 3 -33 -9 0 -21 -16 -21 -28 0 -11 20 -67 11 -76 -11 -4 -10
-14 -13 -36 -9 -19 4 -30 2 -30 -5 0 -6 -12 -11 -26 -11 -14 0 -23 -4 -20 -9
8 -12 -13 -19 -41 -13 -13 2 -23 11 -23 18 0 8 -5 14 -11 14 -6 0 -8 7 -5 15
3 8 9 22 12 30 3 8 1 15 -6 15 -6 0 -18 7 -26 15 -20 19 -48 19 -68 0z"/>
<path d="M3696 5860 c-24 -54 -19 -85 14 -85 23 0 25 3 23 47 0 25 -5 54 -10
62 -7 13 -12 9 -27 -24z"/>
<path d="M5330 5856 c0 -8 4 -17 9 -20 10 -7 23 19 14 28 -11 11 -23 6 -23 -8z"/>
<path d="M6777 5532 c-16 -9 -31 -29 -34 -44 -3 -15 -14 -35 -24 -44 -11 -9
-19 -21 -19 -26 0 -15 43 -52 85 -72 41 -20 124 -37 126 -27 0 3 2 18 4 34 3
19 -4 35 -20 51 -31 31 -24 65 14 68 14 1 37 3 51 4 14 1 64 2 113 3 68 1 87
4 87 15 0 8 6 17 13 20 18 7 -35 -1 -55 -9 -9 -4 -23 -3 -30 1 -13 8 -28 9
-166 14 -54 2 -86 8 -93 17 -14 17 -18 16 -52 -5z m83 -84 c0 -25 -27 -58 -47
-58 -13 0 -18 36 -7 64 3 9 17 16 30 16 18 0 24 -5 24 -22z"/>
<path d="M6970 5320 c11 -20 30 -28 30 -12 0 11 -22 32 -32 32 -5 0 -4 -9 2
-20z"/>
<path d="M4460 5250 c0 -11 4 -20 9 -20 5 0 7 9 4 20 -3 11 -7 20 -9 20 -2 0
-4 -9 -4 -20z"/>
<path d="M5720 5260 c0 -5 7 -10 15 -10 8 0 15 5 15 10 0 6 -7 10 -15 10 -8 0
-15 -4 -15 -10z"/>
<path d="M6860 5226 c0 -8 5 -18 10 -21 6 -4 7 -11 4 -17 -4 -6 1 -8 14 -4 11
4 23 2 27 -4 3 -5 18 -10 33 -10 25 0 25 -1 6 -15 -15 -12 -16 -16 -5 -24 8
-5 10 -14 6 -21 -5 -9 -4 -11 4 -6 9 6 10 0 5 -20 l-7 -28 34 22 c22 14 34 29
35 44 0 26 -40 73 -55 64 -5 -3 -23 7 -39 24 -32 31 -72 40 -72 16z"/>
<path d="M4453 5193 c-18 -7 -16 -20 2 -20 8 0 15 6 15 14 0 7 -1 13 -2 12 -2
0 -9 -3 -15 -6z"/>
<path d="M4297 5019 c-115 -44 -180 -61 -241 -60 -55 0 -68 -4 -102 -29 -23
-17 -52 -30 -69 -30 -16 0 -43 -7 -59 -15 -15 -8 -40 -15 -55 -15 -14 0 -50
-11 -79 -25 -59 -27 -66 -29 -58 -16 9 15 -72 29 -234 41 -159 11 -241 7 -236
-14 2 -6 1 -8 -1 -3 -11 18 -43 4 -67 -32 -50 -72 -87 -187 -96 -301 -5 -58
-12 -119 -16 -136 -8 -42 14 -82 81 -147 30 -29 55 -60 55 -69 0 -38 -24 -78
-63 -104 -148 -101 -198 -179 -152 -240 17 -23 19 -34 4 -34 -6 0 -30 -13 -54
-30 -24 -16 -46 -30 -49 -30 -16 0 -201 -140 -198 -150 1 -7 -3 -10 -10 -7 -7
2 -23 -4 -34 -15 -12 -11 -36 -27 -53 -36 -177 -97 -202 -114 -243 -170 -41
-56 -66 -87 -179 -221 -72 -85 -182 -248 -225 -332 -31 -63 -74 -172 -96 -249
-6 -19 -21 -53 -33 -75 -13 -22 -28 -60 -35 -85 -6 -25 -15 -54 -20 -65 -5
-11 -30 -64 -55 -118 -25 -54 -45 -100 -45 -103 0 -3 -8 -24 -19 -47 -123
-275 -271 -881 -346 -1412 -17 -122 -41 -373 -50 -538 l-7 -107 3799 0 3799 0
-3 63 c-2 34 -8 112 -13 172 -12 126 -30 712 -24 765 5 51 -27 691 -52 1035
-24 327 -50 475 -128 735 -27 93 -89 267 -110 315 -40 88 -100 236 -121 297
-15 43 -42 93 -69 128 -25 32 -46 61 -46 65 0 9 -49 72 -125 160 -33 39 -75
90 -93 112 -19 24 -39 40 -47 37 -8 -3 -12 1 -12 12 3 35 -132 103 -328 164
-38 12 -79 26 -90 30 -65 27 -189 70 -200 70 -7 0 -15 5 -17 11 -2 5 -22 13
-46 16 -23 3 -39 9 -36 14 3 5 -2 9 -11 9 -9 0 -27 8 -40 19 -13 10 -87 45
-165 77 l-140 59 0 58 c0 66 -18 118 -49 139 -11 8 -18 18 -14 21 3 4 -1 7
-10 7 -8 0 -18 -6 -21 -12 -5 -10 -7 -10 -12 0 -3 6 -22 12 -41 12 -20 0 -61
7 -92 16 -31 9 -72 20 -91 26 -23 6 -84 6 -175 0 -92 -6 -142 -6 -146 1 -9 13
-42 0 -34 -12 3 -5 0 -13 -6 -17 -6 -3 -15 -1 -19 6 -11 18 -48 3 -56 -23 -3
-12 -14 -31 -23 -41 -15 -18 -15 -19 22 -13 51 8 49 -8 -10 -90 -49 -68 -79
-102 -193 -227 -79 -86 -130 -149 -126 -154 2 -2 21 4 41 13 21 8 40 13 42 11
2 -2 -36 -44 -84 -92 -124 -126 -244 -270 -257 -311 -4 -11 -18 -30 -31 -43
l-25 -24 -58 24 c-31 12 -64 29 -73 36 -8 8 -19 14 -23 14 -6 0 -76 31 -183
82 -24 11 -43 23 -43 28 0 4 -18 10 -40 14 -22 3 -40 11 -40 16 0 6 -9 10 -19
10 -11 0 -26 6 -33 13 -15 15 -183 97 -198 97 -5 0 -10 5 -10 10 0 6 -5 10
-11 10 -26 0 -741 358 -768 385 -1 2 10 20 25 40 24 32 32 36 57 31 25 -5 35
0 62 27 66 68 147 183 185 261 43 91 120 289 120 310 0 18 -29 17 -83 -5z
m-1114 -225 c21 -44 4 -42 -31 4 -23 30 -23 32 -5 32 12 0 25 -13 36 -36z
m914 -3112 c13 -8 103 -191 103 -209 0 -7 -11 -13 -24 -13 -19 0 -27 8 -36 36
-11 32 -14 34 -22 20 -6 -10 -8 -29 -5 -42 3 -17 -1 -28 -13 -34 -24 -13 -25
-12 -80 115 -12 28 -26 60 -32 72 -23 47 23 60 47 13 20 -40 29 -38 21 4 -5
23 -3 36 6 39 19 8 22 8 35 -1z m-127 -48 c0 -8 18 -53 40 -99 45 -94 49 -115
21 -115 -14 0 -30 20 -55 67 -20 37 -36 72 -36 78 0 5 -7 23 -15 39 -18 34
-12 46 21 46 15 0 24 -6 24 -16z m-60 -36 c27 -61 70 -174 70 -187 0 -6 -9
-11 -20 -11 -15 0 -26 13 -40 43 l-19 42 0 -47 c-1 -30 -5 -48 -13 -48 -8 0
-9 -3 -2 -10 15 -15 275 -16 301 -2 26 14 53 61 53 91 0 11 -9 36 -21 55 -29
50 -11 45 49 -14 52 -51 78 -105 68 -143 -14 -57 -85 -97 -170 -97 -62 0 -355
55 -466 88 -36 11 -105 22 -154 25 -49 4 -91 9 -94 12 -3 3 55 5 129 5 159 0
206 12 200 50 -4 30 -19 41 -47 34 -32 -8 -39 14 -10 28 45 20 21 65 -28 52
-36 -9 -35 20 2 34 46 19 121 25 136 13 11 -9 15 -7 19 9 9 34 36 23 57 -22z"/>
<path d="M3800 1554 c0 -10 11 -41 24 -69 l24 -50 1 46 c1 36 -4 50 -24 69
-23 22 -25 22 -25 4z"/>
<path d="M4718 4093 c7 -3 16 -2 19 1 4 3 -2 6 -13 5 -11 0 -14 -3 -6 -6z"/>
<path d="M4928 4033 c6 -2 18 -2 25 0 6 3 1 5 -13 5 -14 0 -19 -2 -12 -5z"/>
</g>
</svg>
